<svg width="48" height="48" viewBox="0 0 178 177" fill="none" xmlns="http://www.w3.org/2000/svg">
<path d="M146.072 172.343H5.52856L32.6344 4.63794H173.178L146.072 172.343Z" fill="#3643BA" stroke="white" stroke-width="8" stroke-miterlimit="10"/>
<path d="M94.8829 45.7303C106.57 44.5418 121.266 52.9248 121.13 65.7727C121.026 75.8413 108.906 85.9234 112.036 94.3019C112.673 96.0056 115.357 98.7351 116.423 100.837C118.655 105.243 119.256 111.307 115.163 114.932C114.232 115.759 110.672 118.326 109.448 119.189C86.9228 135.069 79.1163 119.867 65.7893 103.995C64.6102 102.594 62.88 101.388 61.7596 99.9553C57.6305 94.677 55.2723 85.4986 57.4498 79.0499C59.0716 74.2551 72.0508 61.8953 76.2341 57.471C82.1929 51.1669 85.17 46.72 94.8829 45.7303ZM93.9161 49.0338C81.5197 50.7195 71.1608 70.5629 61.7415 78.1099C58.656 82.8233 60.6979 92.4987 63.9281 96.8326C64.9897 98.2561 66.5528 99.3181 67.6912 100.669C79.1706 114.285 86.7918 130.938 106.796 117.006C110.762 114.245 114.896 110.742 113.758 105.396C113.044 102.048 109.583 99.3226 108.323 96.584C102.965 84.9473 115.212 77.5314 116.346 67.1962C117.164 59.708 116.378 56.5717 110.026 52.6175C105.215 49.6213 99.5903 48.2611 93.9161 49.0338Z" fill="white"/>
<path d="M106.367 68.3802C103.914 67.7791 101.831 65.149 99.3779 64.6971C90.04 62.9617 77.4539 76.6321 78.3619 85.7245C78.7007 89.1139 80.6795 92.8964 84.533 92.6027C81.6372 86.5335 85.8612 80.3649 92.7325 81.7929C100.331 83.3746 95.4792 93.1043 90.2523 94.5459C91.5986 97.9307 93.1933 100.9 93.1075 104.723C93.0487 107.398 92.3214 112.396 89.5114 113.495C87.9167 113.427 89.8277 105.193 89.7825 103.769C89.7012 101.18 88.5176 98.1747 86.9002 96.1728C74.0069 95.9875 72.489 84.0389 78.1541 74.603C82.6537 67.1103 93.0713 58.2438 102.269 62.7539C104.049 63.6261 107.374 66.2788 106.362 68.3892L106.367 68.3802ZM87.9754 85.6025C86.5614 86.9086 86.4304 92.2818 88.4904 92.0739C90.049 91.9203 93.4779 88.4993 93.5412 86.651C93.5141 84.536 89.3172 84.3598 87.9754 85.6025Z" fill="white"/>
</svg>
