<svg width="382" height="381" viewBox="0 0 382 381" fill="none" xmlns="http://www.w3.org/2000/svg">
<path d="M316.68 376.03H5.58008L65.5801 4.91992H376.68L316.68 376.03Z" fill="#3643BA" stroke="white" stroke-width="8" stroke-miterlimit="10"/>
<path d="M161.6 155.69C160.6 152.78 158.64 150.72 158.12 147.46C158 146.69 157.34 145.18 158.95 145.87C160.17 146.4 163.79 150.99 165.38 152.3C173.16 158.73 175.82 157.85 184.48 161.18C214.34 172.65 248.11 197.33 277.85 203.13C284.32 204.39 292.57 201.7 292.37 210.84C291.37 212.28 275.48 211.44 272.37 211.64C240.94 213.69 220.95 225.56 193 235.84C178.16 241.3 166.67 240.92 153.36 250.63C152.38 251.35 147.14 257.59 148.15 252.99C149.15 248.43 151.67 247.07 154.81 244.15C149.08 243.61 143.84 246.45 138.99 249.12L127.59 257.75C126.85 250.81 132.23 246.47 137.41 243.01C135.27 241.62 132.27 241.75 130.06 240.55C129.17 240.07 128.79 240.57 129.1 238.86C135.99 238.6 142.99 239.21 149.88 238.85C152.39 238.72 156.61 238.43 158.98 238.11C159.98 237.97 160.33 238.5 160.1 236.98C159.74 234.51 155.76 227.71 154.6 224.33C149.15 208.46 146.28 185.62 150.63 169.3C151.25 166.97 152.51 164.79 153.29 162.52C146.61 162.56 139.91 162.46 133.23 162.48C129.26 162.49 124.14 164.6 120.8 160.62C125.74 155.95 133.91 155.9 140.44 155.7L139.48 153.98L130.63 145.88C132.34 146.02 133.88 146.85 135.43 147.5C139.52 149.21 145.81 153.69 149.34 154.76C150.82 155.21 161.09 156.17 161.62 155.7L161.6 155.69ZM264.42 207.09C264.34 205.97 263.25 205.94 262.54 205.57C257.07 202.76 250.19 201.2 244.49 198.67C216.93 186.45 190.83 165.34 159.45 163.37C154.82 172.87 154.84 185.63 155.56 196.12C156.3 206.92 160.88 222.86 171.79 227.52C189 234.87 196.23 211.49 195.61 198.4C195.48 195.68 192.33 184.69 195.32 183.71C198.62 182.96 198.98 185.71 199.78 188.19C204.02 201.41 201.65 218.24 192.6 229.01C215.62 219.27 239.06 208.77 264.42 207.09ZM172.19 235.82C171.93 234.48 165.79 231.66 165.39 232.05L167.61 236.19L172.19 235.82Z" fill="white"/>
<path d="M286.91 192.54C284.12 195.24 278.15 191.19 275.53 189.56C246.67 171.63 205.48 125.04 168.22 130.92C159.86 132.24 152.38 142.22 143.84 144.32C141.56 142.74 144.25 139.21 145.42 137.6C168.42 105.97 213.31 133.88 236.69 150.53C254 162.85 268.91 178.29 287.19 189.28L287.72 190.71C287.53 191.31 287.35 192.1 286.91 192.53V192.54Z" fill="white"/>
<path d="M89.0398 244.14C87.9198 243.02 93.1698 240.11 93.9298 239.59C107.05 230.67 121.25 222.85 134.79 214.68C136.69 215.05 137.95 216.5 137.06 218.42C134.9 223.1 110.42 235.69 104.66 238.23C99.5498 240.48 94.2798 242.27 89.0398 244.14Z" fill="white"/>
<path d="M79.9599 173.82C79.8999 172.48 79.5799 172.21 81.0899 172.31C86.6199 172.66 92.8399 174.11 98.4899 174.58C106.49 175.24 115.47 174.87 123.34 176.19C126.9 176.79 135.42 178.64 128.78 182.08C112.15 180.81 95.6299 179.98 79.9599 173.82Z" fill="white"/>
<path d="M95.8398 206.33C101.68 201.34 110.9 199.34 118.36 198.24C121.43 197.79 131.13 195.64 132.04 199.3C132.73 202.06 129.36 202.5 127.61 202.96C118.12 205.49 105.65 205.82 95.8298 206.33H95.8398Z" fill="white"/>
<path d="M169.17 194.24C174.96 193.71 180.15 192.32 184.18 197.76C192.28 208.72 178.45 220.98 167.41 213.78C159.16 208.4 160.98 189.12 165.11 181.48C166.81 178.33 171.86 172.26 175.19 176.57C176.99 178.9 173.36 180.88 172.33 182.64C170.29 186.13 169.49 190.23 169.19 194.23L169.17 194.24Z" fill="white"/>
</svg>
