<svg width="48" height="48"  viewBox="0 0 178 177" fill="none" xmlns="http://www.w3.org/2000/svg">
<path d="M145.771 172.095H5.22266L32.3285 4.39014H172.877L145.771 172.095Z" fill="#3643BA" stroke="white" stroke-width="8" stroke-miterlimit="10"/>
<path d="M103.725 142.721L103.057 141.288C106.291 124.445 108.216 107.277 107.588 90.0773C107.145 77.9435 111.505 56.5228 99.8898 51.9314C84.1368 45.7086 82.9667 51.6648 78.4039 56.4686C72.016 63.1885 66.8207 100.792 66.378 120.663L65.7591 121.612L64.3767 122.014C63.6313 121.982 62.9671 120.966 62.8045 120.283C62.407 118.575 62.931 111.701 63.0394 109.455C63.9249 90.7778 66.1656 57.5984 82.3749 47.9817C91.3695 45.0894 97.396 46.2057 104.769 50.9056C114.802 55.149 112.566 113.812 106.82 136.941C106.508 138.188 105.568 143.376 103.725 142.716V142.721Z" fill="white"/>
<path d="M98.7785 60.8385C98.4261 62.0315 94.4822 61.7604 93.4025 61.6926C90.9042 61.539 88.7403 60.6803 86.3234 60.2736C86.5086 66.6184 81.5211 73.2796 84.1278 79.4799C89.8381 79.9679 94.699 78.4314 97.0347 72.8865C97.3825 72.0595 98.7875 64.8515 100.563 68.4351C102.555 72.4526 97.7304 79.751 94.0349 81.4999C90.5699 83.1358 82.1581 84.9842 80.3872 80.3023C77.7489 73.3158 82.3343 67.6398 82.6641 61.6022C82.7589 59.8307 81.5121 57.2413 83.8387 56.4504C85.3159 55.9488 88.9029 57.657 90.6332 58.0457C92.115 58.3756 97.4774 58.6919 97.884 58.8772C98.4261 59.1258 98.9321 60.3459 98.783 60.843L98.7785 60.8385Z" fill="white"/>
<path d="M62.678 24.4686C67.9501 24.0935 76.4432 34.7677 77.1254 39.1784C77.3512 40.638 76.764 41.2978 75.3951 40.4889C74.4148 39.9059 70.3625 33.6921 69.1427 32.1421C67.0872 29.53 64.7154 27.0987 62.678 24.4686Z" fill="white"/>
<path d="M126.237 39.5806C123.531 39.6032 120.933 40.7736 118.475 41.8175C115.973 42.8795 110.899 46.3954 109.092 46.8563C107.927 47.1546 107.574 45.835 107.931 44.8996C108.83 42.5496 117.061 39.0925 119.542 38.6315C120.106 38.5276 127.118 38.0847 126.241 39.5806H126.237Z" fill="white"/>
<path d="M81.0106 108.696L80.6853 107.63C82.4607 105.099 90.7777 105.713 92.395 107.611C95.3947 111.136 87.8909 109.08 86.8022 108.976C84.8867 108.791 82.9215 109.089 81.0106 108.696Z" fill="white"/>
<path d="M72.7659 48.7996C72.4993 49.1295 71.4151 49.1747 70.9633 48.9442L61.6028 44.1404C64.1598 43.3812 70.8413 44.9629 72.409 46.9965C72.7342 47.4168 73.0053 48.5059 72.7659 48.7996Z" fill="white"/>
<path d="M120.291 53.6124L110.709 54.6382C109.214 50.1598 118.403 51.5833 120.291 53.6124Z" fill="white"/>
</svg>
