<svg width="48" height="48" viewBox="0 0 178 177" fill="none" xmlns="http://www.w3.org/2000/svg">
<path d="M145.353 172.512H4.80908L31.9149 4.80762H172.459L145.353 172.512Z" fill="#3643BA" stroke="white" stroke-width="8" stroke-miterlimit="10"/>
<path d="M106.808 102.258C106.632 101.517 107.061 101.49 107.468 101.133C109.483 99.3838 113.892 97.8653 116.462 96.2249C118.667 94.8149 122.692 91.3307 122.692 91.3307L127.061 87.3629C121.504 83.6798 116.056 78.885 110.504 75.3194C108.028 73.7287 103.19 70.9856 100.294 71.2929C95.9433 71.7539 91.236 77.0955 87.8974 77.213C85.2456 77.3079 81.6721 71.7584 77.1951 71.6544C69.6823 71.4782 57.5389 82.5546 50.1978 85.1757L53.089 87.0601C56.1565 87.7154 80.3982 89.0034 83.4701 89.6044C84.7215 89.8484 126.419 86.1292 127.12 86.6986C128.29 87.6476 127.657 89.0666 126.248 89.392C111.159 92.8808 63.8952 95.2036 57.9455 91.3352C60.3127 94.6387 63.4525 96.9028 67.2699 98.2992C68.5032 98.7511 72.9666 99.6188 73.2693 99.8447C74.6562 100.875 73.2106 102.303 71.9592 102.579C69.3932 103.144 63.1679 100.59 60.9136 99.0945L46.4436 85.7948C46.7644 85.1576 46.9451 84.5475 47.4013 83.969C49.4523 81.3389 69.7953 69.9055 73.4229 69.074C77.4436 68.1521 80.1768 68.5227 83.6554 70.7823C87.0346 72.9785 86.2575 74.7907 90.6351 72.3865C95.3831 69.7745 97.3935 67.1263 103.641 68.2741C108.715 69.2096 123.121 80.1459 127.246 83.9962C128.755 85.4061 131.036 86.9697 129.265 89.1751C122.877 94.8466 116.133 102.565 106.804 102.262L106.808 102.258Z" fill="white"/>
<path d="M104.586 92.5915L105.575 91.9995C107.314 92.3475 107.097 99.8267 106.989 101.354C106.198 112.566 97.5155 124.533 85.4037 117.745C78.7583 114.021 73.8792 103.935 73.2603 96.5141C73.1564 95.2714 72.813 92.3837 74.0012 91.7871C74.7104 91.4075 75.5372 91.5341 76.0251 92.1622C76.6124 92.9124 77.4346 100.36 78.0896 102.412C80.6195 110.356 88.9455 121.311 97.9672 114.573C101.193 112.164 104.59 104.884 104.59 100.934V92.5915H104.586Z" fill="white"/>
<path d="M91.8232 93.2423C93.0159 98.2676 91.3037 103.623 93.4451 108.521L93.2915 109.095C88.4621 110.627 88.5028 102.118 88.7016 98.9545C88.8009 97.3502 89.1443 91.5793 91.8232 93.2423Z" fill="white"/>
</svg>
