<svg width="48" height="48" viewBox="0 0 178 177" fill="none" xmlns="http://www.w3.org/2000/svg">
<path d="M145.667 172.245H5.12329L32.2291 4.54004H172.773L145.667 172.245Z" fill="#3643BA" stroke="white" stroke-width="8" stroke-miterlimit="10"/>
<path d="M92.9508 34.6147C94.9295 42.4644 97.9653 49.9707 101.11 57.4092C105.347 67.4326 116.036 85.8796 113.511 96.4499C111.487 104.941 97.1025 113.026 88.7448 112.059C87.9226 111.964 86.6577 111.508 87.5251 110.554C88.0943 109.93 94.9611 108.737 96.592 108.168C102.406 106.139 110.714 100.612 111.243 93.9101C111.984 84.4968 102.731 68.0607 98.9276 59.0451C96.7139 53.7939 91.1798 41.5923 91.3154 36.3591C91.3425 35.2655 91.6723 34.3255 92.9508 34.6147Z" fill="white"/>
<path d="M80.4052 107.992C80.6717 108.168 81.3855 113.216 81.6565 114.242C82.9576 119.14 85.6321 123.764 87.7463 128.337L92.4266 135.789C92.2278 135.988 90.353 134.392 90.1045 134.162C85.1984 129.688 79.0905 117.717 78.7969 111.101C78.7607 110.287 78.8556 106.957 80.4052 107.992Z" fill="white"/>
<path d="M68.429 110.418C68.8852 111.498 68.4335 112.303 68.4199 113.274C68.2979 120.388 69.0705 127.315 71.0221 134.153C71.8533 137.068 73.1499 139.77 74.1528 142.608C69.9604 138.604 68.1218 132.16 67.1505 126.565C66.4412 122.475 65.6371 115.48 66.9743 111.557C67.2273 110.821 67.5435 110.292 68.4244 110.418H68.429Z" fill="white"/>
<path d="M80.6447 93.3091C81.2817 93.2955 83.8567 93.5847 84.2498 93.9146C86.4634 95.7765 80.1613 95.6635 79.5469 95.7584C75.1467 96.4588 70.4484 99.559 67.6204 102.921C66.8478 103.839 66.4819 105.714 65.0408 105.515C62.4522 105.158 65.4429 101.308 66.2425 100.454C69.6262 96.8339 75.594 93.3994 80.6402 93.3091H80.6447Z" fill="white"/>
<path d="M75.2462 118.331C74.0399 117.513 73.5566 115.557 73.2494 114.192C73.0416 113.279 72.2464 108.642 72.7976 108.24C73.6831 108.177 73.8141 109.266 73.9812 109.917C74.6634 112.547 74.6815 115.638 75.2462 118.331Z" fill="white"/>
</svg>
