<svg width="139" height="28" viewBox="0 0 3483 362" fill="none" xmlns="http://www.w3.org/2000/svg">
<path d="M451.415 353.044H359.774L442.617 67.8L276.445 353.044H174.97L174.452 65.7297L91.0918 353.044H0L99.4052 8.79736H254.708L258.848 243.837L391.378 8.79736H550.821L451.415 353.044Z" fill="#3643BA"/>
<path d="M764.605 353.044L760.982 288.348H612.926L572.038 353.044H477.809L694.734 8.79736H836.062L854.177 353.044H764.605ZM757.359 219.479L749.078 72.9757L656.401 219.479H757.359Z" fill="#3643BA"/>
<path d="M980.5 8.79736H1072.14L1028.15 160.477L1059.72 130.976L1195.32 8.79736H1316.47L1142.01 155.301L1217.61 348.386L1216.06 353.044H1114.06L1067.48 217.927L993.989 280.035L972.769 353.012H881.127L980.5 8.79736Z" fill="#3643BA"/>
<path d="M1357.9 281.102H1543.74L1523.04 353.076H1245.55L1344.96 8.79736H1620.89L1600.19 80.7715H1415.9L1397.78 144.432H1566.03L1546.88 211.198H1378.12L1357.93 281.07L1357.9 281.102Z" fill="#3643BA"/>
<path d="M2159.77 281.106H2345.61L2324.91 353.08H2047.43L2146.83 8.83301H2422.76L2402.06 80.8072H2217.77L2199.66 144.468H2367.9L2348.75 211.234H2179.99L2159.8 281.106H2159.77Z" fill="#3643BA"/>
<path d="M2727.68 8.79736H2814.66L2715.25 353.044H2571.34L2540.8 128.355C2538.73 113.346 2537.7 97.8189 2537.7 81.7743L2458.99 353.044H2372.01L2471.41 8.79736H2615.33L2646.38 238.144C2647.94 250.566 2648.97 265.575 2649.49 279.55L2727.68 8.79736Z" fill="#3643BA"/>
<path d="M2930.11 295.595C2974.1 295.595 2992.73 284.727 3002.05 256.26C3008.78 233.487 2998.43 221.583 2973.07 217.96L2905.78 208.644C2841.09 199.846 2818.8 162.063 2835.39 104.063C2851.96 42.9904 2906.82 0 3006.22 0C3112.36 0 3146 50.7216 3132.54 111.827H3042.97C3049.18 79.2201 3031.07 66.2809 2992.77 66.2809C2957.05 66.2809 2935.32 76.1147 2926 103.028C2920.83 120.625 2927.55 134.082 2953.43 137.188L3012.43 144.951C3089.55 154.267 3110.8 192.05 3092.17 255.225C3074.57 319.921 3026.41 361.876 2914.61 361.876C2802.82 361.876 2773.8 302.874 2787.78 241.251H2876.31C2868.55 274.375 2882.01 295.595 2930.14 295.595H2930.11Z" fill="#3643BA"/>
<path d="M3220.01 281.106H3405.85L3385.15 353.08H3107.67L3207.07 8.83301H3483L3462.3 80.8072H3278.01L3259.9 144.468H3428.14L3408.99 211.234H3240.23L3220.04 281.106H3220.01Z" fill="#3643BA"/>
<path d="M2068.88 75.2718C2068.88 82.0325 2068.23 88.7932 2066.74 95.8774C2066.58 97.2036 2066.42 98.3358 2066.09 99.6621H1976.52C1976.85 98.3358 1977.01 97.2036 1977.01 95.8774C1978.01 89.7636 1977.82 84.3292 1976.85 79.7034H1871.94L1843.9 156.724C1868.32 139.062 1897.82 127.19 1942.85 127.19C2012.14 127.19 2056.65 169.081 2036.04 243.804C2015.28 318.205 1957.86 361.227 1850.17 361.227C1742.49 361.227 1713.44 307.465 1724.99 255.159H1820.64C1816.53 278.902 1828.4 293.911 1868.8 293.911C1912.83 293.911 1935.12 277.899 1947.96 237.011C1960.51 198.097 1944.82 182.57 1906.55 182.57C1872.43 182.57 1852.79 195.606 1837.26 211.101H1748.21L1797.02 72.5545L1814.49 23.0622L1819.6 8.69971H2009.61C2031.16 8.69971 2051.57 20.2803 2061.05 39.6243C2066.32 50.3962 2068.84 62.3973 2068.84 75.1747L2068.88 75.2718Z" fill="#3643BA"/>
</svg>
